# xmcd
#
# Track frame offsets: 
#        150
#        17925
#        33042
#        49620
#        68815
#        86679
#        99312
#        116682
#        137032
#        151645
#        164650
#        179372
#        195725
#
# Disc length: 2815 seconds
#
# Revision: 0
# Processed by: cddbd v1.5.2PL0 Copyright (c) Steve Scherf et al.
# Submitted via: ExactAudioCopy v0.95b3
#
DISCID=a40afd0d
DTITLE=Various Artist - Pé na Estrada
DYEAR=1995
DGENRE=Ballad
TTITLE0=Um Sonhador
TTITLE1=O Menino da Porteira
TTITLE2=1000 Corações
TTITLE3=Desculpe, mas eu vou chorar
TTITLE4=O que tiver que vir virá
TTITLE5=Caí no Laço
TTITLE6=Sou eu
TTITLE7=Pinga ni Mim
TTITLE8=Cumade e Cumpade
TTITLE9=Vira, Virou
TTITLE10=Panela Velha
TTITLE11=1,2,3
TTITLE12=Tchau Amor
EXTD=
EXTT0=
EXTT1=
EXTT2=
EXTT3=
EXTT4=
EXTT5=
EXTT6=
EXTT7=
EXTT8=
EXTT9=
EXTT10=
EXTT11=
EXTT12=
PLAYORDER=
